<?xml version="1.0" encoding="utf-8"?>
<!-- Generator: Adobe Illustrator 27.3.1, SVG Export Plug-In . SVG Version: 6.00 Build 0)  -->
<svg version="1.1" id="Layer_1" xmlns="http://www.w3.org/2000/svg" xmlns:xlink="http://www.w3.org/1999/xlink" x="0px" y="0px"
	 viewBox="0 0 512 512" style="enable-background:new 0 0 512 512;" xml:space="preserve">
<style type="text/css">
	.st0{fill:#FFC200;}
</style>
<g>
	<path d="M381.55,273.34c-1.31-0.83-2.15-3.29-2.2-5.03c-0.23-7.08-0.41-14.19,0.07-21.24c0.35-5.03-1.67-7.17-6.14-8.96
		c-9.85-3.93-19.41-8.59-29.13-12.84c-2.42-1.06-3.32-2.6-3.32-5.22c-0.04-14.31-0.36-28.62-0.27-42.93
		c0.03-3.77-1.52-5.78-4.66-7.15c-5.93-2.6-11.83-5.29-17.78-7.86c-1.6-0.69-3.85-1.56-6.72-2.83c-5.05-2.23-9.06-4.27-11.69-5.66
		c-5.06-2.33-9.31-4.5-13.74-6.21c-1.38-0.53-3.75-0.43-4.8,0.44c-12.66,10.48-25.06,21.28-37.77,31.7c-3,2.46-3.9,5.04-3.86,8.68
		c0.21,19.84,0.25,39.67,0.34,59.51c0.01,1.94,0,3.88,0,6.33c-1.83-0.56-3.21-0.84-4.46-1.4c-5.56-2.48-11.01-5.19-16.65-7.46
		c-1.49-0.6-4.04-0.62-5.18,0.27c-10.93,8.56-21.6,17.46-32.5,26.06c-3.21,2.53-4.51,5.42-4.51,9.45
		c0.04,23.09-0.14,46.19-0.14,69.28c0,19.55,0.24,39.11,0.21,58.66c-0.01,5.77,3.49,9.32,7.2,13.1c0.91-3.41,1.55-6.71,1.53-10
		c-0.18-42.65-0.5-85.3-0.57-127.94c0-2.48,1.16-5.68,2.92-7.32c5.38-5,11.3-9.44,17.07-14.03c2.22-1.77,4.59-3.35,7.02-5.11
		c0,18.52,0,36.21,0,53.9c0,17.85-0.13,35.71,0.03,53.56c0.16,17.6-0.72,35.23,0.56,52.79c7.13-0.08,7.98-0.89,7.97-6.99
		c-0.06-49.88-0.13-99.75-0.2-149.63c-0.01-6.25,0.53-6.57,6.12-3.95c13.34,6.24,26.65,12.55,40.1,18.52
		c3.04,1.35,4.22,2.72,4.21,6.15c-0.09,36.84,0.02,73.68,0.07,110.52c0,2.62,0,5.24,0,8.74c4.33-1.83,7.57-3.57,11.03-4.56
		c3.69-1.06,4.67-3.07,4.67-6.77c-0.08-74.39-0.04-148.78-0.02-223.17c0-2.93,0-5.86,0-9.44c2.83,1.09,4.96,1.77,6.98,2.7
		c11.45,5.27,22.81,10.71,34.33,15.83c3.15,1.4,4.26,3.05,4.26,6.6c-0.09,59.23-0.02,118.46,0.02,177.68c0,2.85,0,5.69,0,9.38
		c4.25-2.65,7.24-4.79,10.47-6.45c2.94-1.5,4.03-3.69,4.01-6.82c-0.1-24.65-0.17-49.3-0.21-73.96c-0.03-15.36-0.01-30.73-0.01-46.49
		c6.69,2.91,13.33,6.01,20.14,8.67c2.84,1.11,4.08,2.73,4.1,5.63c0.02,4.38,0.14,8.76,0.17,13.14c0.12,21.24,0.22,42.49,0.36,63.73
		c0.01,1.58,0.18,3.16,0.33,5.5c5.42-5.22,8.07-10.6,8.05-17.2c-0.03-9.92-0.03-19.84-0.01-29.76c0-1.01,0.21-2.02,0.42-3.84
		c4.53,5.09,7.52,9.83,8.27,15.9c2.14,17.38-5.22,31.62-15.47,44.46c-11.32,14.17-25.48,25.42-40.81,34.99
		c-35.42,22.12-73.84,36.93-114.61,45.69c-8.85,1.9-17.8,3.34-26.72,4.89c-3.21,0.56-3.23,2.17-1.81,4.48
		c2.22,3.6,4.56,5.59,9.61,4.32c17.55-4.42,35.34-7.83,52.87-12.33c8.46-2.17,16.55-5.79,24.74-8.94
		c25.84-9.96,50.66-21.88,73.39-37.9c16.46-11.61,30.08-25.83,40.24-43.18c2.97-5.07,5.48-10.66,6.89-16.34
		C400.74,299.98,398.65,284.14,381.55,273.34z"/>
	<path d="M171.1,365.28c0.56,3.61-0.25,5.7-3.44,7.84c-10.92,7.32-21.62,14.98-32.03,23c-8.46,6.51-8.34,11.53-8.43,13.2
		c-0.19,3.55,1.23,6.47,3.47,10.97c2.77,5.56,5.91,9.69,8.27,12.41c-7,1.34-18.31-4.68-22.73-11.57c-3.68-5.73-3.5-12.08,1.66-18.45
		c4.24-5.23,8.8-10.62,14.28-14.37c11.78-8.04,24.25-15.08,36.46-22.48C169.26,365.44,170.15,365.48,171.1,365.28z"/>
</g>
<g>
	<path class="st0" d="M331.8,140h-2.89c0,0.03,0,0.06,0,0.09c-1.31,0-2.53,0-3.77,0c0,3.01,0,5.91,0,9c0.8-0.55,1.46-1.01,2.13-1.46
		c0.99-0.67,1.98-1.84,2.98-1.85c1.05-0.01,2.12,1.09,3.17,1.72c0.84,0.5,1.66,1.03,2.55,1.58c0-3.13,0-6.04,0-9.06
		c-1.4,0-2.72,0-4.16,0C331.8,140.02,331.8,140.01,331.8,140z"/>
	<path d="M331.8,138.59c0-8.05,0.02-16.1-0.02-24.15c-0.01-1.02,0.26-1.61,1.21-2.07c1.75-0.84,3.43-1.82,5.29-2.82
		c-2.05-1.14-3.93-2.15-5.75-3.24c-0.35-0.21-0.66-0.77-0.69-1.19c-0.09-1.22,0.05-2.47-0.06-3.69c-0.12-1.39-1.11-2.64-2.13-2.74
		c-2.67-0.26-5.21,0.12-7.39,1.93c-0.31-0.17-0.64-0.34-0.96-0.52c-13.48-7.49-26.95-14.97-40.42-22.49
		c-0.87-0.48-1.51-0.55-2.42-0.02c-16.43,9.47-32.89,18.9-49.34,28.34c-1.81,1.04-3.61,2.08-5.59,3.22
		c7.13,3.24,14.08,6.41,21.2,9.64c0-0.75,0.06-1.24-0.01-1.71c-0.18-1.11,0.34-1.62,1.3-2.11c5.38-2.71,10.98-4.88,16.75-6.55
		c8.22-2.39,16.59-3.43,25.13-2.29c10,1.33,19.45,4.5,28.53,8.83c0.63,0.3,0.89,0.64,0.86,1.35c-0.05,1.44-0.02,2.88-0.02,4.56
		c3.99-2.14,7.78-4.17,11.64-6.24c0,8.54,0,16.9,0,25.38h2.89C331.8,139.46,331.8,139.02,331.8,138.59z M328.35,101.65
		c0.56,0.35,0.59,1.57,0.85,2.4c-0.14,0.08-0.28,0.15-0.43,0.23c-1-0.55-1.99-1.1-3.14-1.74
		C326.54,101.88,327.5,101.12,328.35,101.65z M327.87,112.64c-1.47,0.03-2.76-1.21-2.79-2.65c-0.03-1.4,1.27-2.75,2.68-2.78
		c1.45-0.03,2.72,1.2,2.76,2.67C330.57,111.38,329.37,112.62,327.87,112.64z"/>
	<path d="M313.5,135.22c-3.29-1.09-6.45-2.23-9.66-3.18c-6.85-2.02-13.79-3.55-20.97-3.83c-6.06-0.23-12.02,0.53-17.84,2.05
		c-5.15,1.34-10.2,3.05-15.3,4.6c-0.38,0.12-0.76,0.27-1.25,0.45c-0.02-0.41-0.06-0.73-0.06-1.04c0-5.31,0.01-10.63-0.02-15.94
		c0-0.67,0.15-1.08,0.79-1.4c8.27-4.13,16.88-7.17,26.11-8.24c6.73-0.78,13.32-0.01,19.86,1.63c6.06,1.53,11.9,3.63,17.53,6.34
		c0.54,0.26,0.89,0.5,0.88,1.22c-0.04,5.58-0.02,11.15-0.02,16.73C313.55,134.8,313.52,134.98,313.5,135.22z"/>
</g>
</svg>
